inDegrees=yes
name=ik_MT_2026-07-10_09h47_01210270-000-000_orientations
DataType=double
version=3
OpenSimVersion=4.5
endheader
time	pelvis_tilt	pelvis_list	pelvis_rotation	pelvis_tx	pelvis_ty	pelvis_tz	hip_flexion_r	hip_adduction_r	hip_rotation_r	knee_angle_r	knee_angle_r_beta	ankle_angle_r	subtalar_angle_r	mtp_angle_r	hip_flexion_l	hip_adduction_l	hip_rotation_l	knee_angle_l	knee_angle_l_beta	ankle_angle_l	subtalar_angle_l	mtp_angle_l	lumbar_extension	lumbar_bending	lumbar_rotation	arm_flex_r	arm_add_r	arm_rot_r	elbow_flex_r	pro_sup_r	wrist_flex_r	wrist_dev_r	arm_flex_l	arm_add_l	arm_rot_l	elbow_flex_l	pro_sup_l	wrist_flex_l	wrist_dev_l
11.625	2.554140427739608	1.233423085762771	-46.40499388688277	0	0.9399999999999999	0	2.516399837534053	-2.99578720295988	-11.87240550227516	50.26478912764703	0.877286068098089	-22.17721659639944	0	0	9.214491137381964	6.912404937230226	-5.281176427674429	-1.430481141659381	-0.02496660580964363	-23.66743551013509	0	0	-5.164585881195124	-8.175299137113189	3.300386054836124	-6.097843541016166	0.4456321481243203	13.59276439984207	0.06470760921406046	45.00000025534018	0	0	1.127875246108456	0.9597337516129855	-5.87978127133014	0.1558040264721375	45.00000025534018	0	0
11.65	3.061795885883119	1.651056438722932	-46.97326958282514	0	0.9399999999999999	0	5.206069009294739	-5.728905050199613	-11.46042945037386	54.58198380714115	0.9526353297048427	-20.64825797645752	0	0	7.908630940079274	7.7470684843075	-4.53489829318104	-1.553163935627214	-0.02710782449992815	-22.70369434965359	0	0	-5.343698893485088	-9.131027991515188	3.263809542388797	-8.091728791195921	-0.5097838121666899	13.81168954834051	0.06128668819490452	45.00000025534018	0	0	4.137955609212776	1.815848171677845	-4.745573960495521	0.2668032044350961	45.00000025534018	0	0
11.675	3.115477917741798	2.109285585801346	-47.1445688810957	0	0.9399999999999999	0	8.611126518006909	-7.325272035267016	-11.27826309315954	57.53342690341844	1.004147729420138	-17.64523504701264	0	0	7.049182639035554	8.0428756587766	-4.730046797834154	-1.696713653556035	-0.0296132397180952	-22.19122308255837	0	0	-5.303829919650119	-9.66033495799001	2.891837902054316	-9.575370958881013	-1.387468101279319	13.45148531717198	0.06231228974195324	45.00000025534018	0	0	7.125245656951249	2.675156423294592	-3.524820054387544	0.7033788907979904	45.00000025534018	0	0
11.7	2.703706216454108	2.295703185449533	-46.95903903920857	0	0.9399999999999999	0	12.14848938405233	-8.422196307386763	-10.43447458154249	58.98009730001879	1.029396891031946	-16.38306885827328	0	0	6.282898679889589	7.902414723328252	-4.627529273768351	-1.67115186410297	-0.02916710232943766	-21.51003038898705	0	0	-5.196511861794873	-9.472151394642914	2.176493322041173	-10.6346947676993	-2.248223577938287	12.284505825911	0.06731478061168118	45.00000025534018	0	0	9.465482903578049	3.45574989634681	-2.194667710718752	2.32867179461715	45.00000025534018	0	0
11.725	2.650151402289711	1.537226246003496	-46.58855563028494	0	0.9399999999999999	0	14.63674698549618	-9.09623460927919	-9.388227971843479	59.21166917879888	1.033438582771687	-14.38803764216471	0	0	4.503258033399202	7.524174361924067	-3.789637052321461	-1.413242774284468	-0.02466573954128301	-20.24013608979353	0	0	-5.723236488514916	-8.816281347539336	1.47793419860345	-11.70508844737505	-2.86905401368353	10.17394374026389	0.07659167908406968	45.00000025534018	0	0	10.84152142472414	4.037072959433967	-0.7902503179464289	4.900404173745778	45.00000025534018	0	0
11.75	2.336357459927457	0.9338258683805472	-46.00669372367061	0	0.9399999999999999	0	17.42445374722507	-9.400492570960081	-8.503080424391193	58.47379276208452	1.020560209827204	-11.40221516900523	0	0	3.138494314434617	6.960224018030511	-3.021382918927014	-1.24130070247472	-0.02166478426550239	-19.19172558068288	0	0	-5.906103180879399	-8.074008915993026	0.6762973570732964	-12.6023991819321	-3.165515825657791	7.309291947170543	0.0924264994804455	45.00000025534018	0	0	11.9603118801728	4.497978098387071	0.5250520049244638	7.521546970777031	45.00000025534018	0	0
11.775	1.934563030067107	0.616063101247358	-45.34521193738055	0	0.9399999999999999	0	20.19819819136335	-10.03418070302988	-7.57634447173318	56.43981598175257	0.9850606181012983	-8.274963728109222	0	0	2.194707139457871	6.413589205109782	-2.673014049408438	-0.9386828935436744	-0.01638310712448454	-18.27494902296878	0	0	-5.844974522090274	-7.506077013325917	0.004568361833097305	-13.20760517277126	-3.048372095164658	3.796344111012022	0.1149617592875365	45.00000025534018	0	0	13.01106651744063	4.805724186301591	1.573325003682608	10.06793858512027	45.00000025534018	0	0
11.8	1.803773053808563	0.1757268020782032	-44.67771274540571	0	0.9399999999999999	0	22.22671922495734	-10.83318844200651	-6.835692503529168	52.954074258085	0.9242229481491567	-5.423804356499189	0	0	1.229229584763138	5.955397254186209	-2.391072071644349	-0.3083242236038022	-0.005381272865541565	-17.2382373650118	0	0	-6.250743606663133	-7.0075363273285	-0.4834598818469089	-13.39134026935732	-2.704385213856363	-0.09873582601170516	0.155451948540472	45.00000025534018	0	0	14.2625537956823	4.912633875565543	2.525718872429809	12.31784197619319	45.00000025534018	0	0
